<?xml version="1.0" encoding="UTF-8" standalone="no"?>
<svg
   xmlns:dc="http://purl.org/dc/elements/1.1/"
   xmlns:cc="http://creativecommons.org/ns#"
   xmlns:rdf="http://www.w3.org/1999/02/22-rdf-syntax-ns#"
   xmlns:svg="http://www.w3.org/2000/svg"
   xmlns="http://www.w3.org/2000/svg"
   viewBox="0 0 552 602.66669"
   height="602.66669"
   width="552"
   xml:space="preserve"
   id="svg2"
   version="1.1"><metadata
     id="metadata8"><rdf:RDF><cc:Work
         rdf:about=""><dc:format>image/svg+xml</dc:format><dc:type
           rdf:resource="http://purl.org/dc/dcmitype/StillImage" /></cc:Work></rdf:RDF></metadata><defs
     id="defs6" /><g
     transform="matrix(1.3333333,0,0,-1.3333333,0,602.66667)"
     id="g10"><g
       transform="scale(0.1)"
       id="g12"><path
         id="path14"
         style="fill:#F8DE03;fill-opacity:1;fill-rule:evenodd;stroke:none"
         d="m 2445.71,2590.62 c 26.86,0 48.65,-21.78 48.65,-48.65 0,-26.86 -21.79,-48.64 -48.65,-48.64 -26.87,0 -48.65,21.78 -48.65,48.64 0,26.87 21.78,48.65 48.65,48.65" /><path
         id="path16"
         style="fill:#F8DE03;fill-opacity:1;fill-rule:evenodd;stroke:none"
         d="m 1647.5,1655.39 c 66.84,28.18 127.93,81.93 209.87,102.67 81.94,20.75 169.16,-7 263.27,17.37 94.12,24.38 146.16,91.65 241.34,117.28 81.75,22.01 183.46,-9.49 280.34,15.09 96.88,24.58 147.73,92.64 240.54,118.81 92.81,26.18 181.78,-6.43 278.48,12.87 79.93,15.96 168.48,128.27 286.55,130.38 7.54,-278.65 -59.75,-279.1 -307.83,-340.85 L 2079.67,1560.47 c -63.97,-16.2 -214.12,-63.93 -272.17,-52.85 -57.48,10.97 -134.2,49.57 -160,147.77 z m 151.63,323.31 c 2.1,6.2 122.31,177.27 123.61,177.61 234.49,61.59 484.92,124.66 720.96,184.52 81.7,20.73 231.43,-50.72 279.46,-76.94 C 2810.9,2235.41 1892.27,2000.18 1799.13,1978.7 Z m 1330.31,160.31 c 5.54,24.15 9.59,98.22 36.09,109.24 23.45,9.74 86.84,23.27 115.3,30.95 39.57,10.68 79.63,19.6 119.11,30.62 84.9,23.69 74.89,27.95 98.52,47.04 35.54,-27.29 15.84,-104.11 -19.71,-113.29 -35.74,-9.23 -41.6,-10.77 -92.87,-22.72 -113.71,-29.69 -170.82,-104.28 -244.3,-118.65 -92.54,-18.09 -168.54,13.07 -273.6,-13.59 -105.06,-26.66 -169.35,-85.48 -225.29,-105.34 -79.41,-28.21 -191.69,-2.74 -294.49,-26.54 -102.79,-23.81 -157.25,-94.25 -245.38,-115.14 -88.13,-20.9 -165.43,7.99 -252.72,-11.25 -82.6,-18.2 -144.07,-78.49 -214.6,-89.61 30.84,44.61 73.03,105.66 101.75,147.22 174.68,42.83 1089.59,276.46 1267.87,321.69 10.34,2.63 31.92,-12.44 53.81,-26.13 23.2,-14.51 50.69,-33.27 70.51,-44.5 z m 54.77,191.12 c 16.34,79.35 126.02,180.1 202.86,199.32 106.24,26.55 156.23,-105.43 2.5,-146.88 -65.94,-17.78 -131.04,-33.59 -205.36,-52.44 z m 9.61,150.28 c -47.74,-71.13 -71.74,-88.61 -107.82,-238.5 -110.88,63.46 -185.61,99.47 -288.49,137.95 z m -1764.11,-1.64 c 66.75,164.83 215.58,327.34 360.24,427.59 171.05,118.55 371.91,190.91 578.74,213.71 310.95,34.28 677.74,-54.29 912.47,-261.64 47.12,-41.62 117.72,-111.16 164.12,-173.25 12.8,-17.13 33.68,-50.88 41.8,-66.14 -537.26,-136.32 -994.02,-252.21 -1509.18,-382.92 -57.7,-14.64 -222.51,-52.78 -264.94,-68.42 30.44,48.19 107.73,147.79 127.52,184.5 -74.11,55.59 -195.6,7.32 -271.7,-20.57 21.38,39.77 80.85,108.27 94.56,139.87 -78.34,50.98 -191.14,14.46 -233.63,7.27 z m 390.96,1155.83 c 40.31,-16.56 87.23,-19.01 130.43,-15.15 52.67,4.7 67,-9.1 116.41,-21.57 63.95,-16.14 202.87,-19.78 247.15,-44.39 -120.53,-9.78 -424.91,-59.71 -515.76,16.83 z m -280.76,174.22 c 18.55,-5.64 29.47,-29.68 66.42,-40.15 29.67,-8.4 59.02,-7.38 88.06,2.17 91.44,30.05 77.11,83.38 91.65,105.61 34.6,-124.12 -200.55,-176.13 -246.13,-67.63 z m 102.45,26.16 c 14.54,8.93 31.44,13.33 48.64,13.47 -13.77,-16.73 -28.87,-21.58 -48.64,-13.47 z m 1142.86,23.97 10.85,-6.25 c -170.28,41.39 -347.1,-27.09 -511.69,-77.75 -92.43,-28.44 -426.27,-152.74 -472.45,-33.59 25.52,35.96 29.7,32.84 45.66,78.91 41.11,-11.5 55.29,-26.74 108.84,-31.48 81.32,-7.21 265.57,45.09 347.94,64.78 143.11,34.19 337.63,75.91 470.85,5.38 z m -805.2,81.39 c 9.75,8.94 33.25,15.23 49.18,16.42 -13.6,-18.76 -25,-19.91 -49.18,-16.42 z m 136.51,35.09 c 5.36,4.43 -6.98,6.02 13.57,4.2 -21.69,-131.26 -211.53,-151.32 -249.9,-74.96 32.01,2.76 66.35,-46 144.85,-16.52 73.45,27.58 76.19,67.99 91.48,87.28 z M 1343.78,1765 c 32.22,-21.69 104.31,19.48 127.73,53.36 35.38,51.2 93.08,136.15 142.13,205.64 40.77,57.77 130.71,91.68 205.48,107.61 -102.57,-149.71 -269.9,-390.48 -388.87,-560.75 -51.72,-74.01 -100.28,-143.42 -136.67,-169.75 -128.95,-93.31 -281.09,-146.61 -439.764,-113.98 -161.343,172.29 -144.457,403.77 -120.183,534.21 53.836,289.23 447.477,763.57 637.907,998.66 65.1,80.37 119.76,151.44 156.06,249.6 34.13,92.3 59.53,259.86 24.43,352.5 -16.62,43.88 -55.1,75.72 -83.02,117.73 -28.08,42.23 -48.13,100.37 -54.97,149.98 -5.64,40.95 -11.41,157.6 -2.43,194.51 18.69,76.8 295.91,249.93 352.98,262.42 45.84,10.03 255.79,-83.44 300.76,-112.56 -49.27,-16.76 -505.24,-151.34 -617.35,-186.07 -6.32,-1.55 -11.06,-3.1 -14.43,-4.9 -1.9,-1.02 -3.18,-2.05 -4.51,-3.14 -22.11,-19.78 -4.34,-61.23 32.92,-47.54 38.84,-50.58 46,-79.55 117.2,-102.92 43.05,-14.13 93.43,-15.23 137.21,-2.23 6.16,1.83 12.55,4.73 17.99,6.25 17.63,4.95 6.89,5.96 19.26,-0.07 25.2,-45.88 -21.36,-108.92 -40.73,-144.4 45.93,-70.1 158.14,-76.66 231.93,-93.24 -47.59,-20.88 -157.64,-32.34 -213.61,-42.21 60.84,-31.8 187.69,-14.64 254.48,-20.33 16.97,-117.35 21.29,-146.48 69.03,-257.61 -142.87,-43.93 -280.54,-138.23 -368.96,-205.43 -106.71,-81.09 -198.83,-186.82 -269.62,-301.14 -27.62,-44.58 -73.61,-136.61 -88.52,-189.43 -31.01,-39.2 -35.4,-43.23 -65.77,-80.83 -38.83,-52.56 -235.38,-343.15 -253.71,-367.92 22.36,-15.06 82.14,-0.87 121.67,52.47 64.52,87.06 158.82,250.55 225.91,306.65 54.69,46.32 119.66,76.37 195.08,73.32 -64.14,-92.81 -247.65,-358.25 -376.31,-544.46 24.35,-16.4 87.3,8.5 121.3,57.69 39.15,56.65 120.22,178.84 161.87,234.2 57.31,76.16 166.48,138.68 265.05,142.39 -58.12,-75.43 -299.79,-433.75 -378.95,-548.28 z m 1126.58,1872.54 c -50.13,3.12 -103,36.18 -187.23,38.53 -25.3,0.7 -49.49,2.22 -74.25,6 96.13,-0.47 319.8,134.67 543.37,109.99 32.4,-3.58 62.66,-9 92.69,-20.9 31.67,-12.55 45.4,-30.11 67.96,-45.88 5.88,407.41 -629.85,178.65 -696.49,180.55 -7.31,41.97 -15.05,66.91 -29.56,105.76 11.57,4.02 19.74,6.25 39.46,12.07 14.66,4.32 28.05,7.75 34.09,12.63 9.77,7.9 15.08,20.01 8.85,33.02 -12.65,26.42 -36,15.94 -66.84,6.52 -22.21,-6.79 -31.63,-9.72 -48.23,-14.61 -1.21,0.37 -8.11,5.08 -9.18,5.67 -35.29,19.27 -31.93,32.12 -112.63,66.15 -44.26,18.67 -83.12,36.92 -127.87,51.54 3.05,25.38 32.8,70.6 -7.42,81.36 -39.54,10.58 -47.05,-34.24 -55.71,-61.98 -26.33,-0.41 -55.28,11.11 -83.77,11.11 -37.72,0.02 -40.62,-16.35 -70.51,-25.96 -12.79,19.69 -7.4,84.43 -58.34,62.5 -34.04,-14.65 -5.3,-67.88 -5.02,-94.84 l -35.64,-21.34 c -20.93,25.87 -35.3,114.2 -84.26,85.43 -40.06,-23.55 17.57,-88.47 26.87,-121.86 -57.46,-48.5 -133.32,-99.74 -176.72,-157.71 -32.67,-43.66 -14.32,-250.94 -2.66,-309.7 24.93,-125.52 73.55,-127.66 121.69,-218 33.53,-62.93 8.08,-225.43 -14.24,-293.72 -49.38,-151.02 -175.77,-277.78 -273.23,-401.59 -98.7,-125.39 -202.591,-255.47 -291.349,-387.85 -81.566,-121.66 -192.828,-304.64 -229.808,-444.88 -46.75,-177.3 -26.68,-408.22 73.656,-564.94 13.27,-20.72 49.801,-85.26 70.867,-93.17 127.867,-47.99 310.284,2.51 426.694,59.92 184.98,91.25 223.87,199.12 333.13,359.85 36.43,-66.61 43.11,-131.3 172.34,-191.78 98.79,-47.36 201.98,-6.87 302.68,17.41 l 1171.4,296.21 c 99.28,24.75 177.3,32.89 247.21,116.21 100.48,119.74 46.41,260.23 58.16,298.6 4.02,13.13 109.31,82.55 52.56,192.9 -5.01,9.74 -23.67,34.78 -24.88,40.27 -6.41,29.04 59.26,62.29 -19.04,148.47 26.57,6.74 31.04,7.88 67.41,17.1 -0.95,5.55 -8.63,33.94 -11.34,40.65 -31.38,77.8 -172.07,226.71 -223.69,273.16 -97.9,88.08 -201.65,152.03 -323.03,205.24 -283.19,124.14 -605.37,135.52 -902.78,59.02 -40.16,85.15 -79.37,159.06 -73.37,259.18 15.43,13.15 32.08,18.15 48.53,33.59 25.45,23.88 180.65,27.27 217.49,28.16 51.19,1.24 98.69,-1.51 148.55,-12.14 52.9,-11.28 74.5,-28.47 119.82,-43.35 -9.32,63.66 -91.38,132.38 -146.58,157.93 -73.45,33.99 -159.21,52.73 -237.77,64.62 45.64,-0.12 100.62,3.54 135.05,1.09 34.43,-2.45 109.1,-23.92 122.91,-12.21" /><path
         id="path18"
         style="fill:#F8DE03;fill-opacity:1;fill-rule:evenodd;stroke:none"
         d="m 1942.31,4383.81 c 843.37,54.76 1621.47,-433.67 1933.83,-1218.33 171.03,-429.62 183.61,-904.02 34.9,-1341.98 -67.44,-198.6 -152.81,-350.96 -269.75,-523.48 -54.03,-78.03 -197.72,-204.42 -134.27,-254.95 48.28,-38.44 158.8,83.71 184.72,119.21 27.3,37.39 57.45,72.5 83.82,110.77 81.09,117.69 154.33,254.15 208.73,385.58 83.63,202.05 134.37,419.68 150.26,637.71 C 4232.87,3647.94 3012.09,4743.4 1666.5,4472.89 356.004,4209.45 -361.754,2792.76 196.152,1580.55 308.395,1336.66 496.574,1073.88 704.398,899.758 c 37.567,-31.477 93.235,-91.098 151.442,-119.02 27.199,-13.05 62.031,-23.105 82.121,-13.968 44.68,22.32 16.922,70.824 -7.691,97.933 -35.372,38.949 -72.614,65.152 -112.317,99.625 C 758.297,1009.43 671,1102.78 620.094,1160.19 493.512,1302.96 388.691,1463.38 308.887,1636.75 -253.387,2858.27 578.926,4295.3 1942.31,4383.81" /><path
         id="path20"
         style="fill:#F8DE03;fill-opacity:1;fill-rule:evenodd;stroke:none"
         d="m 2587.25,2942.22 c 26.87,0 48.64,-21.78 48.64,-48.65 0,-26.87 -21.77,-48.64 -48.64,-48.64 -26.87,0 -48.65,21.77 -48.65,48.64 0,26.87 21.78,48.65 48.65,48.65" /><path
         id="path22"
         style="fill:#F8DE03;fill-opacity:1;fill-rule:evenodd;stroke:none"
         d="m 2111.51,2821.52 c 26.87,0 48.65,-21.78 48.65,-48.65 0,-26.87 -21.78,-48.65 -48.65,-48.65 -26.87,0 -48.65,21.78 -48.65,48.65 0,26.87 21.78,48.65 48.65,48.65" /><path
         id="path24"
         style="fill:#F8DE03;fill-opacity:1;fill-rule:evenodd;stroke:none"
         d="m 1971.63,2470.34 c 26.87,0 48.65,-21.78 48.65,-48.65 0,-26.87 -21.78,-48.65 -48.65,-48.65 -26.87,0 -48.65,21.78 -48.65,48.65 0,26.87 21.78,48.65 48.65,48.65" /><path
         id="path26"
         style="fill:#F8DE03;fill-opacity:1;fill-rule:evenodd;stroke:none"
         d="m 2935.32,2714.85 c 26.86,0 48.64,-21.78 48.64,-48.65 0,-26.87 -21.78,-48.65 -48.64,-48.65 -26.87,0 -48.65,21.78 -48.65,48.65 0,26.87 21.78,48.65 48.65,48.65" /><path
         id="path28"
         style="fill:#F8DE03;fill-opacity:1;fill-rule:nonzero;stroke:none"
         d="m 1251.71,1114.95 c 0,-40.43 0,-80.86 0,-121.294 61.12,14.304 122.47,28.614 184.07,43.104 0,40.45 0,80.9 0,121.35 0,17.19 3.96,31.13 11.75,41.68 7.73,10.47 17.87,17.15 30.56,20.16 12.7,3.01 23.2,1.14 31.03,-5.57 7.92,-6.78 11.99,-18.75 11.99,-36.34 0,-55.7 0,-111.29 0,-166.87 0,-55.58 0,-111.162 0,-166.74 0,-17.582 -4.06,-31.45 -12.22,-42.051 -8.05,-10.457 -18.12,-17.254 -30.8,-20.188 -12.94,-2.992 -23.36,-1.179 -31.03,5.922 -7.38,6.836 -11.28,19.133 -11.28,36.453 0,47.426 0,94.856 0,142.282 -61.6,-14.356 -122.95,-28.653 -184.07,-42.946 0,-47.535 -0.24,-94.945 -0.24,-142.351 0,-17.567 -3.7,-31.52 -11.75,-41.965 -8.17,-10.594 -18.6,-17.27 -31.27,-20.227 -12.72,-2.964 -22.94,-0.968 -30.56,5.977 -7.66,6.98 -11.28,19.117 -11.28,36.426 0,55.531 0,111.066 0,166.597 0,55.536 0,111.071 0,166.731 0,17.3 3.49,31.04 11.04,41.54 7.49,10.4 17.88,17.05 31.03,20.2 12.7,3.04 23.01,1.2 31.04,-5.57 7.96,-6.71 11.99,-18.87 11.99,-36.31 z M 1578,987.664 c 0.16,67.876 0.24,135.746 0.24,203.746 0,17.32 3.99,31.23 11.75,41.69 7.76,10.45 17.89,17.21 30.56,20.16 13.18,3.07 23.8,1.29 31.5,-5.64 7.58,-6.82 11.52,-18.95 11.52,-36.27 0,-69.57 0,-139 0,-208.44 0,-23.66 2.68,-42.769 8,-57.5 5.26,-14.597 14.56,-24.875 27.97,-30.465 13.39,-5.578 32.21,-5.574 56.42,0.024 33.38,7.719 57.24,22.183 71,43.269 13.75,21.075 20.69,49.802 20.69,86.012 0,69.99 -0.19,140.1 0,210.21 0.04,17.46 3.85,31.39 11.51,41.79 7.62,10.33 17.89,17.02 30.8,20.05 12.72,2.99 23.08,1.28 31.03,-5.44 8.03,-6.79 11.99,-19.03 11.99,-36.5 0,-67.92 0,-135.84 0,-203.77 0,-33.12 -3.18,-61.65 -9.64,-85.313 -6.46,-23.652 -18.54,-45.894 -36.44,-66.832 -15.24,-17.832 -33.14,-32.304 -53.6,-43.691 -20.21,-11.258 -43.95,-20.121 -71.23,-26.434 -32.43,-7.511 -60.42,-10.578 -83.92,-9 -23.27,1.563 -42.2,8.278 -56.89,19.395 -14.93,11.305 -25.96,27.594 -32.91,49.023 -6.92,21.301 -10.42,48 -10.35,79.926 z m 524.01,326.716 c 54.65,-70.65 109.78,-141.07 164.79,-211.6 0,84.16 0,168.32 0,252.48 0,16.44 3.43,29.56 10.35,39.34 6.95,9.85 16.46,16.13 28.44,18.97 12.23,2.91 22.16,1.14 29.15,-5.45 6.87,-6.48 10.35,-18.09 10.35,-34.41 0,-55.68 0,-111.37 0,-166.92 0,-55.56 0,-111.24 0,-166.79 0,-37.17 -15.08,-59.242 -45.85,-66.437 -7.78,-1.821 -14.57,-2.29 -20.92,-1.551 -6.11,0.711 -11.75,2.918 -17.16,6.504 -5.41,3.578 -10.46,7.961 -15.05,13.371 -4.57,5.398 -9.35,10.793 -13.87,16.633 -53.78,69.57 -107.19,139.55 -160.56,209.43 0,-82.83 0,-165.53 0,-248.227 0,-16.18 -3.76,-29.407 -11.28,-39.414 -7.52,-10.012 -16.92,-16.469 -28.68,-19.18 -12.21,-2.816 -21.83,-0.832 -29.15,5.738 -7.49,6.719 -11.05,18.106 -11.05,34.149 0,54.474 0,108.954 0,163.434 0,54.47 0,108.94 0,163.42 0,13.98 1.28,25.24 4.46,33.72 3.63,9.65 9.85,18.14 18.34,25.63 8.43,7.44 17.66,12.19 27.27,14.53 7.78,1.9 14.34,2.19 19.75,0.95 5.4,-1.25 10.28,-3.59 14.34,-6.8 4.17,-3.29 8.34,-7.83 12.7,-13.54 4.34,-5.72 8.8,-11.74 13.63,-17.98 z m 688.56,-46.55 c 0,-27.22 0,-54.31 0,-81.4 0,-10.89 -0.96,-19.68 -3.06,-26.56 -2.13,-6.99 -6.14,-13.81 -11.75,-20.28 -5.67,-6.56 -12.92,-13.34 -21.87,-20.2 -25.84,-19.85 -50.53,-35.7 -74.05,-47.59 -23.73,-12 -49.36,-21.07 -77.34,-27.59 -32.43,-7.54 -62.3,-9.48 -88.86,-5.67 -26.8,3.84 -49.84,12.98 -68.64,27.74 -18.81,14.77 -33.39,34.48 -43.5,59.3 -10.1,24.83 -15.04,54.04 -15.04,87.58 0,33.03 4.84,64.33 14.58,94.02 9.77,29.8 24.18,56.28 43.25,79.9 19.01,23.53 42.61,43.58 69.82,60.03 27.32,16.53 58.3,28.99 93.09,37.14 28.45,6.66 53.6,8.62 75.46,6.2 22.1,-2.45 39.73,-7.88 53.37,-16.28 13.63,-8.4 24.02,-18.25 31.03,-29.48 7.09,-11.37 10.58,-22.06 10.58,-32.17 0,-10.76 -3.96,-20.86 -11.99,-30.33 -8.19,-9.67 -17.86,-15.7 -29.15,-18.33 -6.1,-1.43 -11.97,-1.37 -17.63,0.28 -5.63,1.63 -10.85,4.28 -14.34,8.75 -10.85,13.88 -19.51,24.57 -26.8,31.31 -7.29,6.75 -17.21,11.5 -29.62,14.41 -12.27,2.88 -28.22,2.19 -47.49,-2.34 -19.74,-4.64 -37.41,-12.23 -53.13,-22.79 -15.53,-10.43 -28.61,-23.49 -39.72,-39.14 -10.99,-15.48 -19.64,-33.44 -25.63,-53.72 -6,-20.33 -8.93,-41.99 -8.93,-64.91 0,-49.87 11.57,-85.3 34.56,-106.91 22.85,-21.5 54.51,-27.47 95.2,-18 19.73,4.59 38.32,11.45 55.95,20.87 17.16,9.18 35.03,20.74 52.89,34.63 0,22.94 0,45.88 0,68.95 -22.1,-5.23 -44.2,-10.44 -66.29,-15.54 -15.99,-3.7 -28.23,-4.21 -36.43,-1.27 -8.02,2.88 -12.23,10.19 -12.23,21.85 0,9.32 3.53,18.1 10.34,25.89 6.82,7.78 16,12.99 27.98,15.75 32.21,7.43 64.63,15.22 97.09,22.81 11.97,2.8 22.33,4.1 30.56,3.9 8.46,-0.19 14.96,-3.46 19.98,-9.55 5.08,-6.17 7.76,-16.61 7.76,-31.26 z m 161.73,46.67 c -10.1,-2.36 -20.21,-4.77 -30.09,-7.09 0,-45.51 0,-90.89 0,-136.28 0,-18.02 -3.79,-32.03 -11.75,-42.46 -7.79,-10.2 -18.08,-17.01 -30.8,-19.96 -13.84,-3.2 -24.58,-1.16 -31.97,6 -7.42,7.2 -11.28,19.25 -11.28,36.36 0,54.45 0,108.89 0,163.34 0,54.45 0,109.03 0,163.61 0,18.41 4.05,32.84 12.46,43.16 8.29,10.17 21.62,17.62 39.96,21.87 46.54,10.81 93.1,21.68 139.88,32.65 19.28,4.52 35.73,7.66 49.6,9.19 13.63,1.5 26.03,0.86 36.91,-1.44 13.33,-2.82 25.13,-7.78 35.26,-15.73 10.32,-8.09 18.25,-18.39 23.51,-30.92 5.32,-12.66 7.99,-26.67 7.99,-42.25 0,-31.66 -8.94,-59.04 -27.03,-82.31 -17.88,-22.99 -44.66,-42.76 -80.87,-59.16 15.05,-4.56 29.59,-13.16 43.49,-25.76 13.84,-12.55 26.25,-26.6 37.14,-41.89 10.97,-15.39 19.49,-29.47 25.63,-42.47 6.08,-12.89 9.17,-22.11 9.17,-27.56 0,-5.45 -1.88,-11.49 -5.41,-17.82 -3.52,-6.32 -8.46,-11.83 -14.58,-16.46 -6.11,-4.64 -13.41,-7.83 -21.63,-9.73 -9.64,-2.22 -17.62,-1.91 -24.21,1.13 -6.58,3.03 -12.19,7.5 -16.92,13.31 -4.67,5.73 -10.97,14.56 -19.05,26.14 -11.43,16.4 -23.29,32.63 -34.79,49.27 -12.48,18.06 -23.19,31.67 -32.91,40.33 -10.02,8.92 -19.97,14.07 -29.86,15.72 -10.1,1.68 -22.57,0.76 -37.85,-2.79 z m 49.14,190.14 c -26.56,-6.22 -52.9,-12.39 -79.23,-18.55 0,-39.03 0,-78.06 0,-116.96 25.63,5.98 51.22,12.09 76.88,18.07 20.66,4.83 38.09,10.59 52.19,17.47 14.1,6.88 24.95,15.46 32.44,25.91 7.32,10.22 11.05,22.99 11.05,38.04 0,11.93 -2.91,21.54 -8.93,29.16 -5.96,7.55 -14.13,12.35 -25.16,14.42 -9.89,1.85 -29.62,-0.63 -59.24,-7.56 z M 3300,1259.22 c 0,44.91 0,89.81 0,134.84 -34.56,45.51 -69.28,90.96 -103.68,136.63 -9.32,12.39 -15.51,22.22 -19.27,29.45 -3.76,7.24 -5.64,13.9 -5.64,19.87 0,9.86 3.78,19.22 11.52,28.3 7.54,8.87 16.92,14.62 27.97,17.23 11.98,2.82 20.92,1.52 27.04,-3.7 6.1,-5.22 15.02,-16.38 27.27,-33.42 26.53,-36.93 53.13,-73.7 79.45,-110.48 26.8,49.19 53.74,98.51 80.64,147.97 4.83,8.89 8.7,16.59 11.99,22.73 3.29,6.15 6.81,12.09 10.81,17.76 4,5.67 8.33,10.23 13.4,13.94 4.8,3.5 10.58,6.27 17.63,7.91 11.05,2.56 19.93,1.09 27.04,-4.21 7.23,-5.4 11.28,-12.7 11.28,-21.92 0,-7.53 -2.21,-15.49 -5.88,-24 -3.61,-8.37 -9.98,-20.19 -18.8,-35.73 -35.61,-62.74 -71,-125.48 -106.5,-188.13 0,-45.05 0,-89.96 0,-134.87 0,-17.65 -4.02,-31.61 -12.22,-42.37 -8.02,-10.53 -18.35,-17.25 -31.03,-20.24 -12.7,-3 -22.95,-1.07 -30.8,5.71 -7.9,6.82 -12.22,18.96 -12.22,36.73 z M 1865.75,43.5273 c -43.02,-9.9765 -86.28,-19.8984 -129.07,-29.789 -18.56,-4.28908 -31.97,-3.2969 -39.96,3.2773 -7.99,6.5782 -11.99,19.0469 -11.99,37.2774 0,106.164 0,212.324 0,318.617 0,18.75 4.21,33.129 12.23,43.09 8.2,10.188 21.39,17.289 39.72,21.535 45.61,10.563 91.22,21.188 136.82,31.817 20.22,4.711 37.62,7.441 52.43,8.367 14.81,0.929 27.95,-0.75 39.73,-5.176 9.85,-3.707 18.8,-9.219 26.56,-16.629 7.76,-7.406 13.54,-16.055 17.64,-26.199 4.12,-10.223 5.87,-21.457 5.87,-33.75 0,-42.445 -21.16,-78.442 -63.47,-107.856 55.72,-4.949 83.45,-32.949 83.45,-84.324 0,-23.68 -6.06,-46.562 -18.1,-68.238 -12.17,-21.918 -28.57,-39.8048 -49.13,-53.4572 -12.82,-8.5078 -27.76,-15.5429 -44.43,-21.6289 -16.71,-6.1054 -36.2,-11.8046 -58.3,-16.9336 z m -6.59,186.8637 c -29.64,-6.852 -59.24,-13.817 -88.62,-20.571 -0.24,-41.254 -0.24,-82.511 -0.24,-123.7692 30.56,6.9726 61.11,14.1482 91.68,21.2382 57.82,13.402 86.75,40.996 86.75,82.785 0,21.477 -7.28,35.231 -22.33,41.485 -14.81,6.148 -37.4,5.73 -67.24,-1.168 z m -88.62,150.539 c 0,-36.602 0,-73.075 0,-109.547 25.86,6.019 51.97,11.98 78.28,18.113 21.17,4.938 37.6,10.879 49.13,17.559 11.74,6.797 20.45,16.586 26.8,29.226 4.7,9.356 7.29,18.867 7.29,28.828 0,21.477 -7.51,34.051 -22.8,37.477 -15.27,3.422 -38.57,1.566 -69.35,-5.59 -23.28,-5.414 -46.31,-10.793 -69.35,-16.066 z m 307.25,-243.172 c 0,55.648 0,111.305 0,166.953 0,55.652 0,111.305 0,167.086 0,17.34 3.97,31.293 11.76,41.719 7.96,10.66 18.33,17.386 30.79,20.265 12.68,2.93 23.28,1.071 31.27,-5.633 7.99,-6.699 11.99,-18.793 11.99,-36.398 0,-55.789 0,-111.453 0,-167.113 0,-55.664 0,-111.324 0,-166.989 0,-17.601 -4.03,-31.507 -11.99,-42.035 -8.02,-10.609 -18.56,-17.4333 -31.27,-20.3552 -12.44,-2.8555 -22.57,-0.875 -30.56,6.0942 -7.99,6.968 -11.99,19.062 -11.99,36.406 z m 261.18,196.594 c -10.34,-2.36 -20.45,-4.711 -30.32,-7.008 0,-45.453 0,-90.774 0,-136.094 0,-18 -3.83,-31.953 -11.76,-42.379 -7.82,-10.273 -18.09,-16.933 -30.79,-19.859 -13.62,-3.141 -24.35,-1.106 -31.74,6.062 -7.42,7.196 -11.29,19.11 -11.29,36.328 0,54.375 0,108.75 0,163.121 0,54.375 0,108.879 0,163.387 0,18.383 4.06,32.785 12.47,43.07 8.28,10.137 21.62,17.368 39.96,21.629 46.31,10.762 93.09,21.586 139.64,32.418 19.28,4.489 35.74,7.453 49.37,8.938 13.64,1.48 26.04,0.871 36.9,-1.391 13.36,-2.777 25.13,-7.824 35.27,-15.789 10.31,-8.105 18.14,-18.449 23.27,-30.926 5.22,-12.695 7.99,-26.664 7.99,-42.211 0,-31.609 -8.87,-58.996 -26.8,-82.132 -17.8,-22.973 -44.89,-42.664 -80.86,-58.903 15.04,-4.586 29.62,-13.175 43.49,-25.824 13.87,-12.648 26.33,-26.562 37.14,-41.906 10.81,-15.348 19.25,-29.477 25.39,-42.469 6.08,-12.891 9.16,-22.105 9.16,-27.547 0,-5.437 -1.9,-11.461 -5.4,-17.781 -3.55,-6.422 -8.5,-11.887 -14.58,-16.41 -6.14,-4.571 -13.39,-7.703 -21.39,-9.664 -9.63,-2.367 -17.63,-1.871 -24.21,1.176 -6.58,3.05 -12.23,7.363 -16.93,13.199 -4.7,5.84 -10.97,14.699 -19.04,26.281 -11.43,16.398 -23.18,32.711 -34.55,49.277 -12.37,18.004 -23.21,31.653 -32.91,40.344 -9.81,8.785 -19.75,14.106 -29.63,15.77 -10.1,1.703 -22.57,0.785 -37.85,-2.707 z m 49.14,189.773 c -26.56,-6.172 -53.13,-12.254 -79.46,-18.348 0,-38.976 0,-77.953 0,-116.797 25.62,5.915 51.46,11.93 77.1,17.879 20.44,4.739 37.86,10.485 51.96,17.325 14.11,6.839 24.72,15.379 32.2,25.8 7.32,10.192 11.05,22.93 11.05,37.957 0,11.918 -2.91,21.52 -8.93,29.145 -5.96,7.555 -14.12,12.391 -24.92,14.457 -9.88,1.898 -29.62,-0.586 -59,-7.418 z m 278.8,129.336 c 37.14,8.648 74.27,17.391 111.67,26.016 29.36,6.769 54.3,9.824 75.22,9.261 20.92,-0.562 39.67,-6.504 56.66,-17.254 43.89,-27.757 66.29,-80.289 66.29,-157.578 0,-25.422 -2.11,-49.156 -6.58,-71.261 -4.46,-22.11 -11.26,-42.735 -20.45,-61.84 -9.14,-18.996 -21.27,-36.953 -35.73,-53.606 -11.17,-12.867 -23.77,-23.84 -37.38,-33.191 -13.42,-9.227 -27.93,-17.11 -43.26,-23.094 -15.7,-6.129 -33.38,-11.422 -52.66,-15.879 -37.6,-8.699 -74.98,-17.383 -112.13,-25.969 -15.51,-3.586 -27.3,-3.937 -35.26,-1.027 -8.02,2.934 -13.06,8.391 -15.52,16.457 -2.47,8.078 -3.76,18.899 -3.76,32.504 0,103.793 0,207.582 0,311.5 0,18.531 4.19,32.953 12.46,43.117 8.42,10.352 21.86,17.516 40.43,21.844 z m 33.15,-60.508 c 0,-96.16 0,-192.328 0,-288.359 21.63,4.933 43.26,9.98 65.12,15.121 14.11,3.32 25.61,6.308 33.62,8.996 7.97,2.672 16.43,6.437 25.15,11.508 8.9,5.176 16.42,11.289 22.8,18.261 28.41,31.024 43.02,76.333 43.02,135.844 0,41.879 -6.44,71.887 -19.04,89.817 -12.55,17.863 -28.19,27.683 -46.78,29.089 -18.56,1.407 -41.15,-1.007 -67.24,-7.074 -19.04,-4.422 -37.84,-8.82 -56.65,-13.203" /><path
         id="path30"
         style="fill:none;stroke:#F8DE03;stroke-width:14.17319965;stroke-linecap:butt;stroke-linejoin:miter;stroke-miterlimit:22.92560005;stroke-dasharray:none;stroke-opacity:1"
         d="m 1251.71,1114.95 c 0,-40.43 0,-80.86 0,-121.294 61.12,14.304 122.47,28.614 184.07,43.104 0,40.45 0,80.9 0,121.35 0,17.19 3.96,31.13 11.75,41.68 7.73,10.47 17.87,17.15 30.56,20.16 12.7,3.01 23.2,1.14 31.03,-5.57 7.92,-6.78 11.99,-18.75 11.99,-36.34 0,-55.7 0,-111.29 0,-166.87 0,-55.58 0,-111.162 0,-166.74 0,-17.582 -4.06,-31.45 -12.22,-42.051 -8.05,-10.457 -18.12,-17.254 -30.8,-20.188 -12.94,-2.992 -23.36,-1.179 -31.03,5.922 -7.38,6.836 -11.28,19.133 -11.28,36.453 0,47.426 0,94.856 0,142.282 -61.6,-14.356 -122.95,-28.653 -184.07,-42.946 0,-47.535 -0.24,-94.945 -0.24,-142.351 0,-17.567 -3.7,-31.52 -11.75,-41.965 -8.17,-10.594 -18.6,-17.27 -31.27,-20.227 -12.72,-2.964 -22.94,-0.968 -30.56,5.977 -7.66,6.98 -11.28,19.117 -11.28,36.426 0,55.531 0,111.066 0,166.597 0,55.536 0,111.071 0,166.731 0,17.3 3.49,31.04 11.04,41.54 7.49,10.4 17.88,17.05 31.03,20.2 12.7,3.04 23.01,1.2 31.04,-5.57 7.96,-6.71 11.99,-18.87 11.99,-36.31 z M 1578,987.664 c 0.16,67.876 0.24,135.746 0.24,203.746 0,17.32 3.99,31.23 11.75,41.69 7.76,10.45 17.89,17.21 30.56,20.16 13.18,3.07 23.8,1.29 31.5,-5.64 7.58,-6.82 11.52,-18.95 11.52,-36.27 0,-69.57 0,-139 0,-208.44 0,-23.66 2.68,-42.769 8,-57.5 5.26,-14.597 14.56,-24.875 27.97,-30.465 13.39,-5.578 32.21,-5.574 56.42,0.024 33.38,7.719 57.24,22.183 71,43.269 13.75,21.075 20.69,49.802 20.69,86.012 0,69.99 -0.19,140.1 0,210.21 0.04,17.46 3.85,31.39 11.51,41.79 7.62,10.33 17.89,17.02 30.8,20.05 12.72,2.99 23.08,1.28 31.03,-5.44 8.03,-6.79 11.99,-19.03 11.99,-36.5 0,-67.92 0,-135.84 0,-203.77 0,-33.12 -3.18,-61.65 -9.64,-85.313 -6.46,-23.652 -18.54,-45.894 -36.44,-66.832 -15.24,-17.832 -33.14,-32.304 -53.6,-43.691 -20.21,-11.258 -43.95,-20.121 -71.23,-26.434 -32.43,-7.511 -60.42,-10.578 -83.92,-9 -23.27,1.563 -42.2,8.278 -56.89,19.395 -14.93,11.305 -25.96,27.594 -32.91,49.023 -6.92,21.301 -10.42,48 -10.35,79.926 z m 524.01,326.716 c 54.65,-70.65 109.78,-141.07 164.79,-211.6 0,84.16 0,168.32 0,252.48 0,16.44 3.43,29.56 10.35,39.34 6.95,9.85 16.46,16.13 28.44,18.97 12.23,2.91 22.16,1.14 29.15,-5.45 6.87,-6.48 10.35,-18.09 10.35,-34.41 0,-55.68 0,-111.37 0,-166.92 0,-55.56 0,-111.24 0,-166.79 0,-37.17 -15.08,-59.242 -45.85,-66.437 -7.78,-1.821 -14.57,-2.29 -20.92,-1.551 -6.11,0.711 -11.75,2.918 -17.16,6.504 -5.41,3.578 -10.46,7.961 -15.05,13.371 -4.57,5.398 -9.35,10.793 -13.87,16.633 -53.78,69.57 -107.19,139.55 -160.56,209.43 0,-82.83 0,-165.53 0,-248.227 0,-16.18 -3.76,-29.407 -11.28,-39.414 -7.52,-10.012 -16.92,-16.469 -28.68,-19.18 -12.21,-2.816 -21.83,-0.832 -29.15,5.738 -7.49,6.719 -11.05,18.106 -11.05,34.149 0,54.474 0,108.954 0,163.434 0,54.47 0,108.94 0,163.42 0,13.98 1.28,25.24 4.46,33.72 3.63,9.65 9.85,18.14 18.34,25.63 8.43,7.44 17.66,12.19 27.27,14.53 7.78,1.9 14.34,2.19 19.75,0.95 5.4,-1.25 10.28,-3.59 14.34,-6.8 4.17,-3.29 8.34,-7.83 12.7,-13.54 4.34,-5.72 8.8,-11.74 13.63,-17.98 z m 688.56,-46.55 c 0,-27.22 0,-54.31 0,-81.4 0,-10.89 -0.96,-19.68 -3.06,-26.56 -2.13,-6.99 -6.14,-13.81 -11.75,-20.28 -5.67,-6.56 -12.92,-13.34 -21.87,-20.2 -25.84,-19.85 -50.53,-35.7 -74.05,-47.59 -23.73,-12 -49.36,-21.07 -77.34,-27.59 -32.43,-7.54 -62.3,-9.48 -88.86,-5.67 -26.8,3.84 -49.84,12.98 -68.64,27.74 -18.81,14.77 -33.39,34.48 -43.5,59.3 -10.1,24.83 -15.04,54.04 -15.04,87.58 0,33.03 4.84,64.33 14.58,94.02 9.77,29.8 24.18,56.28 43.25,79.9 19.01,23.53 42.61,43.58 69.82,60.03 27.32,16.53 58.3,28.99 93.09,37.14 28.45,6.66 53.6,8.62 75.46,6.2 22.1,-2.45 39.73,-7.88 53.37,-16.28 13.63,-8.4 24.02,-18.25 31.03,-29.48 7.09,-11.37 10.58,-22.06 10.58,-32.17 0,-10.76 -3.96,-20.86 -11.99,-30.33 -8.19,-9.67 -17.86,-15.7 -29.15,-18.33 -6.1,-1.43 -11.97,-1.37 -17.63,0.28 -5.63,1.63 -10.85,4.28 -14.34,8.75 -10.85,13.88 -19.51,24.57 -26.8,31.31 -7.29,6.75 -17.21,11.5 -29.62,14.41 -12.27,2.88 -28.22,2.19 -47.49,-2.34 -19.74,-4.64 -37.41,-12.23 -53.13,-22.79 -15.53,-10.43 -28.61,-23.49 -39.72,-39.14 -10.99,-15.48 -19.64,-33.44 -25.63,-53.72 -6,-20.33 -8.93,-41.99 -8.93,-64.91 0,-49.87 11.57,-85.3 34.56,-106.91 22.85,-21.5 54.51,-27.47 95.2,-18 19.73,4.59 38.32,11.45 55.95,20.87 17.16,9.18 35.03,20.74 52.89,34.63 0,22.94 0,45.88 0,68.95 -22.1,-5.23 -44.2,-10.44 -66.29,-15.54 -15.99,-3.7 -28.23,-4.21 -36.43,-1.27 -8.02,2.88 -12.23,10.19 -12.23,21.85 0,9.32 3.53,18.1 10.34,25.89 6.82,7.78 16,12.99 27.98,15.75 32.21,7.43 64.63,15.22 97.09,22.81 11.97,2.8 22.33,4.1 30.56,3.9 8.46,-0.19 14.96,-3.46 19.98,-9.55 5.08,-6.17 7.76,-16.61 7.76,-31.26 z m 161.73,46.67 c -10.1,-2.36 -20.21,-4.77 -30.09,-7.09 0,-45.51 0,-90.89 0,-136.28 0,-18.02 -3.79,-32.03 -11.75,-42.46 -7.79,-10.2 -18.08,-17.01 -30.8,-19.96 -13.84,-3.2 -24.58,-1.16 -31.97,6 -7.42,7.2 -11.28,19.25 -11.28,36.36 0,54.45 0,108.89 0,163.34 0,54.45 0,109.03 0,163.61 0,18.41 4.05,32.84 12.46,43.16 8.29,10.17 21.62,17.62 39.96,21.87 46.54,10.81 93.1,21.68 139.88,32.65 19.28,4.52 35.73,7.66 49.6,9.19 13.63,1.5 26.03,0.86 36.91,-1.44 13.33,-2.82 25.13,-7.78 35.26,-15.73 10.32,-8.09 18.25,-18.39 23.51,-30.92 5.32,-12.66 7.99,-26.67 7.99,-42.25 0,-31.66 -8.94,-59.04 -27.03,-82.31 -17.88,-22.99 -44.66,-42.76 -80.87,-59.16 15.05,-4.56 29.59,-13.16 43.49,-25.76 13.84,-12.55 26.25,-26.6 37.14,-41.89 10.97,-15.39 19.49,-29.47 25.63,-42.47 6.08,-12.89 9.17,-22.11 9.17,-27.56 0,-5.45 -1.88,-11.49 -5.41,-17.82 -3.52,-6.32 -8.46,-11.83 -14.58,-16.46 -6.11,-4.64 -13.41,-7.83 -21.63,-9.73 -9.64,-2.22 -17.62,-1.91 -24.21,1.13 -6.58,3.03 -12.19,7.5 -16.92,13.31 -4.67,5.73 -10.97,14.56 -19.05,26.14 -11.43,16.4 -23.29,32.63 -34.79,49.27 -12.48,18.06 -23.19,31.67 -32.91,40.33 -10.02,8.92 -19.97,14.07 -29.86,15.72 -10.1,1.68 -22.57,0.76 -37.85,-2.79 z m 49.14,190.14 c -26.56,-6.22 -52.9,-12.39 -79.23,-18.55 0,-39.03 0,-78.06 0,-116.96 25.63,5.98 51.22,12.09 76.88,18.07 20.66,4.83 38.09,10.59 52.19,17.47 14.1,6.88 24.95,15.46 32.44,25.91 7.32,10.22 11.05,22.99 11.05,38.04 0,11.93 -2.91,21.54 -8.93,29.16 -5.96,7.55 -14.13,12.35 -25.16,14.42 -9.89,1.85 -29.62,-0.63 -59.24,-7.56 z M 3300,1259.22 c 0,44.91 0,89.81 0,134.84 -34.56,45.51 -69.28,90.96 -103.68,136.63 -9.32,12.39 -15.51,22.22 -19.27,29.45 -3.76,7.24 -5.64,13.9 -5.64,19.87 0,9.86 3.78,19.22 11.52,28.3 7.54,8.87 16.92,14.62 27.97,17.23 11.98,2.82 20.92,1.52 27.04,-3.7 6.1,-5.22 15.02,-16.38 27.27,-33.42 26.53,-36.93 53.13,-73.7 79.45,-110.48 26.8,49.19 53.74,98.51 80.64,147.97 4.83,8.89 8.7,16.59 11.99,22.73 3.29,6.15 6.81,12.09 10.81,17.76 4,5.67 8.33,10.23 13.4,13.94 4.8,3.5 10.58,6.27 17.63,7.91 11.05,2.56 19.93,1.09 27.04,-4.21 7.23,-5.4 11.28,-12.7 11.28,-21.92 0,-7.53 -2.21,-15.49 -5.88,-24 -3.61,-8.37 -9.98,-20.19 -18.8,-35.73 -35.61,-62.74 -71,-125.48 -106.5,-188.13 0,-45.05 0,-89.96 0,-134.87 0,-17.65 -4.02,-31.61 -12.22,-42.37 -8.02,-10.53 -18.35,-17.25 -31.03,-20.24 -12.7,-3 -22.95,-1.07 -30.8,5.71 -7.9,6.82 -12.22,18.96 -12.22,36.73 z M 1865.75,43.5273 c -43.02,-9.9765 -86.28,-19.8984 -129.07,-29.789 -18.56,-4.28908 -31.97,-3.2969 -39.96,3.2773 -7.99,6.5782 -11.99,19.0469 -11.99,37.2774 0,106.164 0,212.324 0,318.617 0,18.75 4.21,33.129 12.23,43.09 8.2,10.188 21.39,17.289 39.72,21.535 45.61,10.563 91.22,21.188 136.82,31.817 20.22,4.711 37.62,7.441 52.43,8.367 14.81,0.929 27.95,-0.75 39.73,-5.176 9.85,-3.707 18.8,-9.219 26.56,-16.629 7.76,-7.406 13.54,-16.055 17.64,-26.199 4.12,-10.223 5.87,-21.457 5.87,-33.75 0,-42.445 -21.16,-78.442 -63.47,-107.856 55.72,-4.949 83.45,-32.949 83.45,-84.324 0,-23.68 -6.06,-46.562 -18.1,-68.238 -12.17,-21.918 -28.57,-39.8048 -49.13,-53.4572 -12.82,-8.5078 -27.76,-15.5429 -44.43,-21.6289 -16.71,-6.1054 -36.2,-11.8046 -58.3,-16.9336 z m -6.59,186.8637 c -29.64,-6.852 -59.24,-13.817 -88.62,-20.571 -0.24,-41.254 -0.24,-82.511 -0.24,-123.7692 30.56,6.9726 61.11,14.1482 91.68,21.2382 57.82,13.402 86.75,40.996 86.75,82.785 0,21.477 -7.28,35.231 -22.33,41.485 -14.81,6.148 -37.4,5.73 -67.24,-1.168 z m -88.62,150.539 c 0,-36.602 0,-73.075 0,-109.547 25.86,6.019 51.97,11.98 78.28,18.113 21.17,4.938 37.6,10.879 49.13,17.559 11.74,6.797 20.45,16.586 26.8,29.226 4.7,9.356 7.29,18.867 7.29,28.828 0,21.477 -7.51,34.051 -22.8,37.477 -15.27,3.422 -38.57,1.566 -69.35,-5.59 -23.28,-5.414 -46.31,-10.793 -69.35,-16.066 z m 307.25,-243.172 c 0,55.648 0,111.305 0,166.953 0,55.652 0,111.305 0,167.086 0,17.34 3.97,31.293 11.76,41.719 7.96,10.66 18.33,17.386 30.79,20.265 12.68,2.93 23.28,1.071 31.27,-5.633 7.99,-6.699 11.99,-18.793 11.99,-36.398 0,-55.789 0,-111.453 0,-167.113 0,-55.664 0,-111.324 0,-166.989 0,-17.601 -4.03,-31.507 -11.99,-42.035 -8.02,-10.609 -18.56,-17.4333 -31.27,-20.3552 -12.44,-2.8555 -22.57,-0.875 -30.56,6.0942 -7.99,6.968 -11.99,19.062 -11.99,36.406 z m 261.18,196.594 c -10.34,-2.36 -20.45,-4.711 -30.32,-7.008 0,-45.453 0,-90.774 0,-136.094 0,-18 -3.83,-31.953 -11.76,-42.379 -7.82,-10.273 -18.09,-16.933 -30.79,-19.859 -13.62,-3.141 -24.35,-1.106 -31.74,6.062 -7.42,7.196 -11.29,19.11 -11.29,36.328 0,54.375 0,108.75 0,163.121 0,54.375 0,108.879 0,163.387 0,18.383 4.06,32.785 12.47,43.07 8.28,10.137 21.62,17.368 39.96,21.629 46.31,10.762 93.09,21.586 139.64,32.418 19.28,4.489 35.74,7.453 49.37,8.938 13.64,1.48 26.04,0.871 36.9,-1.391 13.36,-2.777 25.13,-7.824 35.27,-15.789 10.31,-8.105 18.14,-18.449 23.27,-30.926 5.22,-12.695 7.99,-26.664 7.99,-42.211 0,-31.609 -8.87,-58.996 -26.8,-82.132 -17.8,-22.973 -44.89,-42.664 -80.86,-58.903 15.04,-4.586 29.62,-13.175 43.49,-25.824 13.87,-12.648 26.33,-26.562 37.14,-41.906 10.81,-15.348 19.25,-29.477 25.39,-42.469 6.08,-12.891 9.16,-22.105 9.16,-27.547 0,-5.437 -1.9,-11.461 -5.4,-17.781 -3.55,-6.422 -8.5,-11.887 -14.58,-16.41 -6.14,-4.571 -13.39,-7.703 -21.39,-9.664 -9.63,-2.367 -17.63,-1.871 -24.21,1.176 -6.58,3.05 -12.23,7.363 -16.93,13.199 -4.7,5.84 -10.97,14.699 -19.04,26.281 -11.43,16.398 -23.18,32.711 -34.55,49.277 -12.37,18.004 -23.21,31.653 -32.91,40.344 -9.81,8.785 -19.75,14.106 -29.63,15.77 -10.1,1.703 -22.57,0.785 -37.85,-2.707 z m 49.14,189.773 c -26.56,-6.172 -53.13,-12.254 -79.46,-18.348 0,-38.976 0,-77.953 0,-116.797 25.62,5.915 51.46,11.93 77.1,17.879 20.44,4.739 37.86,10.485 51.96,17.325 14.11,6.839 24.72,15.379 32.2,25.8 7.32,10.192 11.05,22.93 11.05,37.957 0,11.918 -2.91,21.52 -8.93,29.145 -5.96,7.555 -14.12,12.391 -24.92,14.457 -9.88,1.898 -29.62,-0.586 -59,-7.418 z m 278.8,129.336 c 37.14,8.648 74.27,17.391 111.67,26.016 29.36,6.769 54.3,9.824 75.22,9.261 20.92,-0.562 39.67,-6.504 56.66,-17.254 43.89,-27.757 66.29,-80.289 66.29,-157.578 0,-25.422 -2.11,-49.156 -6.58,-71.261 -4.46,-22.11 -11.26,-42.735 -20.45,-61.84 -9.14,-18.996 -21.27,-36.953 -35.73,-53.606 -11.17,-12.867 -23.77,-23.84 -37.38,-33.191 -13.42,-9.227 -27.93,-17.11 -43.26,-23.094 -15.7,-6.129 -33.38,-11.422 -52.66,-15.879 -37.6,-8.699 -74.98,-17.383 -112.13,-25.969 -15.51,-3.586 -27.3,-3.937 -35.26,-1.027 -8.02,2.934 -13.06,8.391 -15.52,16.457 -2.47,8.078 -3.76,18.899 -3.76,32.504 0,103.793 0,207.582 0,311.5 0,18.531 4.19,32.953 12.46,43.117 8.42,10.352 21.86,17.516 40.43,21.844 z m 33.15,-60.508 c 0,-96.16 0,-192.328 0,-288.359 21.63,4.933 43.26,9.98 65.12,15.121 14.11,3.32 25.61,6.308 33.62,8.996 7.97,2.672 16.43,6.437 25.15,11.508 8.9,5.176 16.42,11.289 22.8,18.261 28.41,31.024 43.02,76.333 43.02,135.844 0,41.879 -6.44,71.887 -19.04,89.817 -12.55,17.863 -28.19,27.683 -46.78,29.089 -18.56,1.407 -41.15,-1.007 -67.24,-7.074 -19.04,-4.422 -37.84,-8.82 -56.65,-13.203 z" /><path
         id="path32"
         style="fill:#F8DE03;fill-opacity:1;fill-rule:nonzero;stroke:none"
         d="M 3334.39,1005.43 1349.66,504.039 c -12.79,-3.23 -23.89,-1.336 -33.29,5.691 -9.4,7.024 -14.1,16.934 -14.1,29.739 0,13.195 4.69,25.488 14.1,36.859 9.39,11.375 20.5,18.68 33.29,21.914 l 1984.73,501.388 c 12.8,3.23 23.9,1.53 33.3,-5.09 9.4,-6.63 14.1,-16.54 14.1,-29.74 0,-12.8 -4.7,-25.09 -14.1,-36.86 -9.4,-11.78 -20.5,-19.28 -33.3,-22.51" /></g></g></svg>